<svg width="906" height="906" viewBox="0 0 906 906" fill="none" xmlns="http://www.w3.org/2000/svg">
<path d="M295.732 579.114C317.427 637.061 318.762 659.006 309.894 687.195C328.286 665.178 339.394 653.103 369.525 635.018C492.166 558.957 478.605 458.339 475.37 293.63C425.692 379.441 387.417 400.966 314.369 465.815C276.354 501.594 283.062 550.789 295.732 579.114Z" fill="url(#paint0_linear_534_2)"/>
<path d="M485.809 293.63C499.935 469.595 489.522 550.941 400.089 629.055C511.618 589.762 547.703 491.477 564.075 216.855C540.88 227.646 530.919 237.867 517.115 261.579C506.348 278.284 499.264 284.665 485.809 293.63Z" fill="url(#paint1_linear_534_2)"/>
<path d="M570.782 225.055C567.812 424.661 554.001 500.89 503.697 561.97C574.483 523.405 602.972 473.167 619.978 297.357C602.667 290.814 597.616 287.667 591.653 266.797C588.671 250.398 581.528 238.92 570.782 225.055Z" fill="url(#paint2_linear_534_2)"/>
<path d="M298.881 578.172C316.447 632.472 327.892 658.729 318.542 684.332C336.41 664.815 342.448 644.033 370.967 628.631C487.149 563.681 478.263 456.186 482.174 304.291C432.811 381.277 388.557 419.25 318.538 475.944C282.014 507.319 288.393 551.544 298.881 578.172Z" fill="white" fill-opacity="0.82"/>
<path d="M491.792 304.728C497.445 467.45 488.746 553.847 403.075 622.078C513.823 583.415 547.899 479.876 563.626 219.72C541.804 228.692 534.742 249.564 521.031 270.834C510.411 285.775 504.565 297.03 491.792 304.728Z" fill="white" fill-opacity="0.82"/>
<path d="M572.14 233.481C561.051 417.271 550.273 501.063 501.368 555.236C571.217 515.812 600.318 487.084 618.667 302.288C602.991 295.535 595.765 290.968 591.144 271.489C589.083 256.255 581.462 246.706 572.14 233.481Z" fill="white" fill-opacity="0.82"/>
<defs>
<linearGradient id="paint0_linear_534_2" x1="466.902" y1="326.427" x2="304.407" y2="713.284" gradientUnits="userSpaceOnUse">
<stop stop-color="#FE2EFD" stop-opacity="0"/>
<stop offset="0.404724" stop-color="#FE30FD"/>
<stop offset="0.586755" stop-color="#FE30FD"/>
<stop offset="0.860624" stop-color="#00FFD2"/>
</linearGradient>
<linearGradient id="paint1_linear_534_2" x1="554.858" y1="233.999" x2="427.396" y2="611.911" gradientUnits="userSpaceOnUse">
<stop stop-color="#00FED1"/>
<stop offset="0.34" stop-color="#FE30FD"/>
<stop offset="0.68" stop-color="#FE30FD"/>
<stop offset="1" stop-color="#00FED1"/>
</linearGradient>
<linearGradient id="paint2_linear_534_2" x1="578.709" y1="225.8" x2="531.75" y2="538.863" gradientUnits="userSpaceOnUse">
<stop stop-color="#00FED1"/>
<stop offset="0.225" stop-color="#00FED1"/>
<stop offset="0.55" stop-color="#7331FF"/>
<stop offset="0.79" stop-color="#7331FF"/>
<stop offset="1" stop-color="#00FED1"/>
</linearGradient>
</defs>
</svg>
